<?xml version="1.0" encoding="UTF-8"?>
<!DOCTYPE svg PUBLIC "-//W3C//DTD SVG 1.1//EN" "http://www.w3.org/Graphics/SVG/1.1/DTD/svg11.dtd">
<!-- Creator: CorelDRAW 2021 (64-Bit) -->
<svg xmlns="http://www.w3.org/2000/svg" xml:space="preserve" width="54.618mm" height="5.82mm" version="1.1" style="shape-rendering:geometricPrecision; text-rendering:geometricPrecision; image-rendering:optimizeQuality; fill-rule:evenodd; clip-rule:evenodd"
viewBox="0 0 3561.78 379.54"
 xmlns:xlink="http://www.w3.org/1999/xlink"
 xmlns:xodm="http://www.corel.com/coreldraw/odm/2003">
 <defs>
  <style type="text/css">
   <![CDATA[
    .fil0 {fill:#FEFEFE}
   ]]>
  </style>
 </defs>
 <g id="Layer_x0020_1">
  <metadata id="CorelCorpID_0Corel-Layer"/>
  <path class="fil0" d="M-0 379.54l3117.41 0 0 -298.53 57.35 0 4.56 20.26c17.76,-14.77 44.16,-27.89 76.68,-27.89 77.93,0 127.73,56.88 127.73,126.64 0,69.6 -48,126.95 -126.56,126.95 -28.67,0 -51.54,-8.8 -68.58,-21.21l0 73.77 373.19 0 0 -379.54 -82.44 0 0 319.27 -71.18 0 0 -319.27 -1618.98 0 0 319.27 -71.18 0 0 -319.27 -687.74 0c2.57,5 3.95,10.58 3.95,16.42 0,20.74 -16.81,37.56 -42.81,37.56 -25.45,0 -42.5,-17.29 -42.5,-37.56 0,-5.84 1.38,-11.42 3.95,-16.42l-690.89 0 0 37.24 -30.4 -0.23c-25.06,0 -34.02,16.19 -34.02,36.3l0 7.62 63.95 0 0 60.8 -63.95 0 0.23 177.55 -71.64 0 -0.16 -177.55 -43.52 0 0 -60.8 43.52 0 0 -8.95c0,-25.86 7.08,-53.62 26.96,-71.97l-152.94 0 0 379.54zm398.34 -246.76c24.9,0 46.27,14.69 56.17,37.71l-112.26 0c9.66,-23.02 31.03,-37.71 56.09,-37.71zm-133 67.4c0.23,69.53 54.52,126.72 132.61,126.72 66.93,0 111.63,-41.56 125.38,-83.35l-76.83 0c-8.56,14.45 -25.77,25.29 -48.16,25.29 -27.34,0 -52.01,-18.85 -59.55,-48.86l190.75 0c0.95,-5.58 1.89,-10.13 1.89,-19.8 0,-69.91 -54.52,-126.8 -133.48,-126.8 -78.24,0 -132.61,57.03 -132.61,126.8zm271.35 44.55c0,39.28 30.72,82.72 104.01,82.72 67.48,0 115.33,-26.24 115.33,-83.35 0,-52.48 -43.68,-64.42 -94.12,-73.14 -32.44,-4.64 -46.27,-7.62 -46.27,-20.03 -0.23,-10.38 10.13,-19.8 31.73,-19.8 18.23,0 28.84,9.66 29.7,21.45l71.34 0.23c0,-46.98 -36.06,-79.34 -95.93,-79.34 -72.89,0 -107.54,29.38 -107.54,78.16 0,54.99 45.41,65.29 73.46,70.87 41.01,8.95 63.31,10.99 63.31,26.39 0,12.65 -11.55,20.19 -38.25,20.19 -20.67,0 -35.91,-9.89 -37.01,-24.12l-69.76 -0.23zm249.51 -170.87l-36.14 13.75 0 54.13 37.95 0 0 84.54c0,80.45 44.07,94.98 97.56,94.98l46.27 0 0.48 -58.3 -39.83 0c-19.09,0 -33.78,-7.62 -33.78,-37.31l0 -83.9 69.21 0 0 -60.8 -69.21 0 0 -66.22 -50.99 0.39 -21.52 58.76zm168.9 245.42l71.73 0 0 -238.59 -71.73 0 0 238.59zm396.57 -238.35l-46.03 143.22 -0.86 0 -43.52 -142.04 -51.3 0 -43.76 142.04 -0.7 0 -46.27 -143.22 -76.21 0 83.36 238.35 63.78 0 45.09 -130.33 45.56 130.33 63.72 0 83.82 -238.35 -76.68 0zm131.91 119.25c0,-39.36 27.81,-65.51 63.55,-65.51 35.2,0 63.8,26.39 63.8,65.51 0,40.07 -28.37,66 -63.56,66 -35.27,0 -63.78,-26.16 -63.78,-66zm-71.18 0.24c0,69.91 49.97,126.55 128.06,126.55 31.11,0 56.64,-11.7 74.39,-25.68l3.22 18.06 60.57 0 0 -238.35 -60.57 0 -2.99 18.38c-17.51,-13.98 -43.12,-26.01 -74.62,-26.01 -78.56,0 -128.06,57.35 -128.06,127.04zm404.51 88.45c0,20.27 15.4,37.08 38.97,37.08 23.72,0 39.12,-16.58 39.12,-37.08 0,-20.19 -15.4,-37.24 -39.12,-37.24 -23.57,0 -38.97,17.05 -38.97,37.24zm388.64 -207.95l-46.04 143.22 -0.86 0 -43.52 -142.04 -51.3 0 -43.76 142.04 -0.7 0 -46.27 -143.22 -76.21 0 83.36 238.35 63.78 0 45.1 -130.33 45.56 130.33 63.72 0 83.82 -238.35 -76.68 0zm249.2 0l-33.79 0c-29.46,0 -51.54,9.9 -66.69,22.62l-5.58 -22.62 -56.88 0 0 238.35 70.71 0 0 -110.69c0,-43.44 23.25,-65.44 62.37,-65.44l29.86 -0.23 0 -61.98zm4 119.5c0,69.91 54.84,126.55 132.62,126.55 79.58,0 133.71,-56.4 133.71,-126.55 0,-69.92 -54.36,-127.04 -133.24,-127.04 -78.72,0 -133.09,57.35 -133.09,127.04zm71.18 -0.24c0,-39.36 27.5,-65.51 62.15,-65.51 34.88,0 62.3,26.39 62.3,65.51 0,40.07 -27.27,66 -62.14,66 -34.41,0 -62.3,-26.4 -62.3,-66zm279.52 -0.08c0,-40.69 28.52,-65.28 61.9,-65.28 24.36,0 45.09,12.88 55.47,34.72l72.51 -0.23c-13.59,-55.46 -61.27,-95.93 -128.44,-95.93 -78.26,0 -132.62,57.75 -132.62,126.96 0.24,69.22 54.6,126.64 132.62,126.64 67.17,0 115.71,-41.24 128.44,-96.08l-72.51 0c-10.38,21.61 -31.11,34.58 -55.47,34.58 -33.15,0 -61.9,-24.67 -61.9,-65.37zm202.3 88.77c0,20.27 15.4,37.08 38.96,37.08 23.72,0 39.12,-16.58 39.12,-37.08 0,-20.19 -15.4,-37.24 -39.12,-37.24 -23.57,0 -38.96,17.05 -38.96,37.24zm300.81 -88.61c0,39.51 -27.66,65.43 -63.48,65.43 -35.35,0 -63.95,-26.4 -63.95,-65.43 0,-39.92 28.13,-66.07 63.71,-66.07 35.35,0 63.71,26.39 63.71,66.07z"/>
 </g>
</svg>
